<svg xmlns="http://www.w3.org/2000/svg" width="100" height="100" viewBox="0 0 100 100" fill="none"><g clip-path="url(#clip0_155_32424)"><path d="M50 100C77.6142 100 100 77.6142 100 50C100 22.3858 77.6142 0 50 0C22.3858 0 0 22.3858 0 50C0 77.6142 22.3858 100 50 100Z" fill="white"></path><path d="M65.574 66.1571C63.153 66.1571 60.924 65.7585 58.8868 64.9614C56.8497 64.1642 55.0783 63.0571 53.5726 61.64C52.0668 60.1933 50.9007 58.5104 50.074 56.5914C49.2473 54.6428 48.834 52.5171 48.834 50.2142C48.834 47.9114 49.2473 45.8004 50.074 43.8814C50.9007 41.9328 52.0668 40.25 53.5726 38.8328C55.0783 37.3861 56.8497 36.2642 58.8868 35.4671C60.924 34.67 63.1383 34.2714 65.5297 34.2714C67.9507 34.2714 70.1649 34.67 72.1726 35.4671C74.2097 36.2642 75.9811 37.3714 77.4868 38.7885C78.9926 40.2057 80.1587 41.8885 80.9854 43.8371C81.8121 45.7857 82.2254 47.9114 82.2254 50.2142C82.2254 52.5171 81.8121 54.6428 80.9854 56.5914C80.1587 58.54 78.9926 60.2228 77.4868 61.64C75.9811 63.0571 74.2097 64.1642 72.1726 64.9614C70.1649 65.7585 67.9654 66.1571 65.574 66.1571ZM75.6711 72.49C74.5787 72.49 73.5159 72.3571 72.4826 72.0914C71.4787 71.8552 70.4749 71.4419 69.4711 70.8514C68.4968 70.2904 67.4783 69.5376 66.4154 68.5928C65.3526 67.6776 64.1864 66.5409 62.9168 65.1828L69.0283 63.5885C69.8549 64.6809 70.6373 65.5519 71.3754 66.2014C72.143 66.8804 72.8811 67.3676 73.5897 67.6628C74.2983 67.9581 75.0364 68.1057 75.804 68.1057C77.8411 68.1057 79.6126 67.279 81.1183 65.6257L83.7754 68.8142C81.7087 71.2647 79.0073 72.49 75.6711 72.49ZM65.5297 61.1085C67.0945 61.1085 68.5411 60.8428 69.8697 60.3114C71.1983 59.78 72.3497 59.0271 73.324 58.0528C74.2983 57.049 75.0511 55.8828 75.5826 54.5542C76.1435 53.2257 76.424 51.779 76.424 50.2142C76.424 48.62 76.1435 47.1733 75.5826 45.8742C75.0511 44.5457 74.2983 43.3942 73.324 42.42C72.3497 41.4161 71.1983 40.6485 69.8697 40.1171C68.5411 39.5857 67.0945 39.32 65.5297 39.32C63.9649 39.32 62.5183 39.5857 61.1897 40.1171C59.8611 40.6485 58.7097 41.4161 57.7354 42.42C56.7611 43.3942 55.9935 44.5457 55.4326 45.8742C54.9011 47.1733 54.6354 48.62 54.6354 50.2142C54.6354 51.779 54.9011 53.2257 55.4326 54.5542C55.9935 55.8828 56.7611 57.049 57.7354 58.0528C58.7097 59.0271 59.8611 59.78 61.1897 60.3114C62.5183 60.8428 63.9649 61.1085 65.5297 61.1085Z" fill="#161B2A"></path><path d="M33.8695 66.1571C31.5076 66.1571 29.3081 65.7733 27.2709 65.0057C25.2633 64.2085 23.5066 63.1014 22.0009 61.6842C20.5247 60.2376 19.3733 58.54 18.5466 56.5914C17.72 54.6428 17.3066 52.5171 17.3066 50.2143C17.3066 47.9114 17.72 45.7857 18.5466 43.8371C19.3733 41.8885 20.5395 40.2057 22.0452 38.7885C23.5509 37.3419 25.3076 36.2347 27.3152 35.4671C29.3228 34.67 31.5224 34.2714 33.9138 34.2714C36.4528 34.2714 38.7705 34.7143 40.8666 35.6C42.9628 36.4562 44.7343 37.7404 46.1809 39.4528L42.4609 42.9514C41.339 41.7409 40.0843 40.8404 38.6966 40.25C37.309 39.63 35.8033 39.32 34.1795 39.32C32.5557 39.32 31.0647 39.5857 29.7066 40.1171C28.3781 40.6485 27.2119 41.4014 26.2081 42.3757C25.2338 43.35 24.4662 44.5014 23.9052 45.83C23.3738 47.1585 23.1081 48.62 23.1081 50.2143C23.1081 51.8085 23.3738 53.27 23.9052 54.5985C24.4662 55.9271 25.2338 57.0785 26.2081 58.0528C27.2119 59.0271 28.3781 59.78 29.7066 60.3114C31.0647 60.8428 32.5557 61.1085 34.1795 61.1085C35.8033 61.1085 37.309 60.8133 38.6966 60.2228C40.0843 59.6028 41.339 58.6728 42.4609 57.4328L46.1809 60.9757C44.7343 62.6585 42.9628 63.9428 40.8666 64.8285C38.7705 65.7142 36.4381 66.1571 33.8695 66.1571Z" fill="#161B2A"></path></g><defs><clipPath id="clip0_155_32424"><rect width="100" height="100" fill="white"></rect></clipPath></defs></svg>