<svg xmlns="http://www.w3.org/2000/svg" width="181" height="51" viewBox="0 0 181 51" fill="none"><g clip-path="url(#clip0_871_23965)"><path d="M34.5832 40.1841H35.7031L35.1455 38.4827L34.5832 40.1841ZM36.2607 41.9998L35.9795 41.0228H34.302L34.0208 41.9998H32.9009L34.5784 37.5248H35.8366L37.5141 41.9998H36.2607ZM41.2933 39.3453H41.8509L42.2702 39.2071L42.4085 39.0689V38.4827L42.2702 38.3445L41.8509 38.2063H41.2981L41.2933 39.3453ZM41.2933 41.161H42.1559L42.4371 41.0228L42.5753 40.8846V40.4652L42.4371 40.1841L42.1559 40.0459H41.2981L41.2933 41.161ZM40.1733 41.9998V37.5296H42.6896L43.2472 37.8108L43.5284 38.2301V38.9307L43.3902 39.2119L43.109 39.493L42.6896 39.6312L43.109 39.7695L43.5284 40.0506L43.6666 40.3318V41.3088L43.3854 41.7282L42.8278 41.8663L42.2702 42.0046L40.1733 41.9998ZM46.4641 40.1841H47.584L47.0312 38.4827L46.4641 40.1841ZM48.1416 41.9998L47.8604 41.0228H46.1829L45.9017 41.9998H44.7818L46.4593 37.5248H47.5792L49.2568 41.9998H48.1416ZM53.4553 41.9998L51.6396 39.0641V41.9998H50.5197V37.5296H51.7778L53.5936 40.4652V37.5296H54.7135V42.0046L53.4553 41.9998ZM59.1742 41.9998L57.6349 39.7647V41.9998H56.5149V37.5296H57.6349V39.6265L59.0312 37.5296H60.2894L58.7501 39.6265L60.4276 42.0093L59.1742 41.9998ZM69.1012 41.9998V37.5296H72.1798L72.0416 38.3683H70.3641V39.3453H71.7604V40.1841H70.3641V41.9998H69.1012ZM76.0924 40.1841H77.2124L76.6786 38.4827L76.0924 40.1841ZM77.77 41.9998L77.4888 41.0228H75.8113L75.5301 41.9998H74.2719L76.0877 37.5248H77.2076L78.8851 41.9998H77.77ZM84.3419 41.9998V38.9259L82.8025 41.9998L81.2632 38.9259V41.9998H80.2863V37.5296H81.7112L82.8311 39.9124L83.9511 37.5296H85.3474V42.0046L84.3419 41.9998ZM87.1393 41.9998V37.5296H90.3562L90.075 38.3683H88.2593V39.2071H89.9368V40.1841H88.2593V41.161H90.3562V41.9998H87.1393ZM93.0107 39.4835H93.7112L93.9924 39.3453L94.1306 39.0641V38.6448L93.9924 38.5065L93.7112 38.3683H93.0107V39.4835ZM94.2688 41.9998L93.2918 40.1841H93.0107V41.9998H91.8907V37.5296H94.407L94.9646 37.8108L95.2458 38.2301V39.2071L95.1076 39.6265L94.8264 39.9077L94.407 40.0459L95.527 42.0046L94.2688 41.9998ZM96.9614 37.5296H98.0814V42.0046H96.9614V37.5296ZM106.193 40.1841H107.17L106.602 38.4827L106.193 40.1841ZM107.87 41.9998L107.451 41.0228H105.911L105.492 41.9998H104.372L106.05 37.5248H107.308L108.985 41.9998H107.87ZM126.456 41.9998V38.9259L125.079 41.9998L123.54 38.9259V41.9998H122.563V37.5296H123.959L125.079 39.9124L126.199 37.5296H127.595V42.0046L126.456 41.9998ZM130.374 39.4835H131.213L131.351 39.3453L131.489 39.2071L131.627 38.9259L131.489 38.6448L131.351 38.5065L131.213 38.3683H130.374V39.4835ZM129.254 41.9998V37.5296H131.751L132.309 37.8108L132.59 38.3683L132.728 38.9259L132.59 39.4835L132.309 39.9029L131.751 40.3223H130.355V41.9998H129.254ZM134.973 40.1841H136.093L135.564 38.4827L134.973 40.1841ZM136.65 41.9998L136.369 41.0228H134.691L134.41 41.9998H133.29L134.992 37.5296H136.112L137.789 42.0046L136.65 41.9998ZM141.964 41.9998L140.148 39.0641V41.9998H139.028V37.5296H140.148L142.107 40.4652V37.5296H143.227V42.0046L141.964 41.9998ZM146.02 41.9998V40.3223L144.499 37.5296H145.757L146.734 39.2071L147.573 37.5296H148.831L147.154 40.327V42.0046L146.02 41.9998ZM65.0503 38.3636L64.6309 38.6448L64.3497 39.0641L64.2115 39.7647L64.3497 40.3223L64.6309 40.7416L65.0503 41.0228L65.4697 41.161L66.0273 41.0228L66.4467 40.7416L66.5849 40.3223L66.7231 39.7647L66.5849 39.0641L66.4467 38.6448L66.0273 38.3636L65.4697 38.2254L65.0503 38.3636ZM64.9121 41.9998L64.4927 41.8616L64.0733 41.7234L63.7922 41.4422L63.511 41.0228L63.2298 40.6035L63.0916 40.1841V39.2071L63.2298 38.7877L63.511 38.3683L63.7922 38.0872L64.0733 37.806L64.4927 37.5248L64.9121 37.3866H66.032L66.4514 37.5248L66.8708 37.806L67.2902 38.0872L67.5714 38.3683L67.8525 38.7877V39.2071L67.9907 39.7647L67.8525 40.1841V40.6035L67.5714 41.0228L67.2902 41.4422L66.8708 41.7234L66.4514 41.8616L66.032 41.9998L65.4744 42.138L64.9121 41.9998ZM101.413 42.138L100.993 41.9998L100.574 41.7186L100.154 41.4375L99.8733 41.1563L99.7351 40.7369L99.5969 40.1793L99.4587 39.7599L99.5969 39.2023L99.7351 38.783L99.8733 38.3636L100.154 38.0824L100.574 37.8012L100.993 37.52L101.413 37.3818H102.68L103.238 37.663V38.783L102.68 38.3636H101.56L101.141 38.783L100.86 39.2023L100.722 39.7599L100.86 40.3175L101.141 40.7369L101.56 41.0181L102.118 41.1563H102.68L103.381 40.7369V41.8568L102.68 41.995L101.98 42.1332L101.413 42.138ZM113.436 42.138L112.879 41.9998L112.46 41.7186L112.178 41.4375L111.759 41.1563L111.621 40.7369L111.483 40.1793V39.2023L111.621 38.783L111.759 38.3636L112.178 38.0824L112.46 37.8012L112.879 37.52L113.436 37.3818H114.595L115.295 37.663V38.783L114.737 38.3636H113.479L113.06 38.783L112.779 39.2023L112.641 39.7599L112.779 40.3175L113.06 40.7369L113.618 41.0181L114.175 41.1563H114.733L115.29 40.7369V41.8568L114.733 41.995L114.032 42.1332L113.436 42.138ZM118.202 38.3636L117.921 38.6448L117.64 39.0641L117.502 39.7647L117.64 40.3223L117.921 40.7416L118.202 41.0228L118.76 41.161L119.179 41.0228L119.599 40.7416L119.88 40.3223L120.018 39.7647L119.88 39.0641L119.599 38.6448L119.179 38.3636L118.76 38.2254L118.202 38.3636ZM118.202 41.9998L117.783 41.8616L117.363 41.7234L116.944 41.4422L116.663 41.0228L116.525 40.6035L116.386 40.1841L116.248 39.7647L116.386 39.2071L116.525 38.7877L116.663 38.3683L116.944 38.0872L117.363 37.806L117.783 37.5248L118.202 37.3866H119.322L119.741 37.5248L120.161 37.806L120.58 38.0872L120.861 38.3683L121 38.7877L121.138 39.2071V40.1841L121 40.6035L120.861 41.0228L120.58 41.4422L120.161 41.7234L119.741 41.8616L119.322 41.9998L118.765 42.138L118.202 41.9998Z" fill="white"></path><path d="M42.4181 32.9112V26.0582L39.2012 32.9112L35.8652 26.0582V32.9112H33.6301V22.7031H36.5658L39.2251 28.1551L41.8843 22.7031H44.82V32.9112H42.4181ZM49.5666 32.9112V22.7031H56.5579L56.1195 24.6618H52.0686V26.7587H55.5667V28.7174H52.0686V30.9526H56.5436V32.9112H49.5666ZM63.1298 27.1924H64.0782L64.7788 27.0542L65.3363 26.916L65.6175 26.4966L65.7557 25.939L65.6175 25.3814L65.3363 24.9621L64.7931 24.6618L64.0925 24.5236H63.1251L63.1298 27.1924ZM66.0655 32.9112L63.8256 28.8556H63.1251V32.9112H60.6088V22.7031H65.5079L66.2085 22.8413L66.909 23.1225L67.3284 23.5419L67.7478 23.9613L68.029 24.5189L68.1672 25.0764V26.754L67.7478 27.5927L67.0472 28.1503L66.2085 28.5697L68.7248 32.9017L66.0655 32.9112ZM74.8773 27.1924H75.9925L76.55 27.0542L77.1076 26.916L77.3888 26.4966L77.527 25.939L77.3888 25.3814L77.1076 24.9621L76.55 24.6809L75.9925 24.5427H74.8725L74.8773 27.1924ZM77.813 32.9112L75.5731 28.8556H74.8725V32.9112H72.4897V22.7031H77.2554L77.9559 22.8413L78.6565 23.1225L79.0759 23.5419L79.4952 23.9613L79.7764 24.5189L79.9146 25.0764L80.0528 25.777L79.9146 26.754L79.4952 27.5927L78.7947 28.1503L77.9559 28.5697L80.4722 32.9017L77.813 32.9112ZM84.2466 22.7031H86.6295V32.9112H84.2466V22.7031ZM91.5191 32.9112V22.7031H94.0354V30.8048H98.3722V32.9017L91.5191 32.9112ZM102.004 32.9112V22.7031H104.52V30.8048H108.857V32.9017L102.004 32.9112Z" fill="white"></path><path d="M138.347 31.5108L138.066 31.649L137.946 31.811V32.3686L138.085 32.5068L138.366 32.645L138.647 32.7832L138.928 32.645L139.066 32.5068L139.205 32.3686L139.343 32.0874L139.205 31.8062L139.066 31.668L138.928 31.5298L138.647 31.3916L138.347 31.5108ZM138.628 32.9071H138.347L138.066 32.626L137.784 32.3448V31.811L138.066 31.5298L138.347 31.3916L138.628 31.2534L138.909 31.3916L139.19 31.5298L139.329 31.811L139.467 32.0922L139.329 32.3734L139.19 32.6545L138.909 32.9357L138.628 32.9071Z" fill="white"></path><path d="M138.909 32.4922L138.628 32.0728L138.766 31.9346H138.9L138.761 31.7964H138.48V32.497H138.342V31.6582H138.9L139.038 31.9394L138.9 32.0776H138.761L139.043 32.497L138.909 32.4922Z" fill="white"></path><path d="M120.17 18.0854H119.332L119.193 17.809L119.613 17.5278H120.17L120.733 17.666L121.152 17.809L120.871 18.0854H120.17Z" fill="white"></path><path d="M133.452 12.7766L133.872 12.9148L134.291 13.053L134.849 12.9148L135.268 12.7766L136.107 12.0761H132.771L133.452 12.7766ZM121.848 14.0348L121.429 14.173L121.29 14.5924V15.0117L121.71 14.8735L121.991 14.5924L122.129 14.3112L122.267 13.8918L121.848 14.0348ZM130.936 28.7179L131.355 28.9991L131.637 29.1373H132.056L132.475 28.9991L132.757 28.7179L131.637 28.4367L130.66 28.1555L130.936 28.7179ZM115.972 25.9204V26.478L116.253 27.8744L116.534 29.6901V30.6671L116.396 31.787H117.373L117.654 29.1325V27.1738L115.972 25.6154V25.9204ZM128.977 28.9943L128.558 30.5336L128 31.8108H128.977L129.535 30.6909L130.093 29.4327L129.673 28.8752L128.977 28.9943ZM129.259 24.2286L129.12 24.7862V25.4867L129.402 26.1873L129.54 26.4685L129.821 26.6067L130.66 27.0261L131.78 27.1643L132.618 27.4454L133.457 27.7266L133.877 28.0078L134.158 28.289L134.439 28.5702L134.577 28.9895V29.6901L134.439 30.3906L134.019 31.787H135.416L135.554 30.5289L135.835 29.2707L136.393 27.5932L135.692 27.1738L135.273 26.6162L134.434 25.3581L134.134 24.6623L133.576 23.9617L132.876 23.4041L132.456 23.123L131.899 22.9848L130.502 22.7036L129.106 22.146L127.581 21.3263L126.88 20.7687L126.18 20.2111L125.761 19.6535L125.622 20.7735L125.484 21.474L125.203 22.0316L124.226 21.3263L124.507 20.7687V19.2294L124.369 18.2524L124.088 17.2754L123.53 16.2985L122.696 14.4541L121.576 16.1317L121.714 16.6893L121.295 17.3898L120.175 17.2516L119.055 17.3898L118.636 16.6893H120.733L120.871 16.4081V15.9887L120.733 15.0117V14.5924L120.871 14.173L121.009 13.8918L121.29 13.6106L121.71 13.4724L122.267 13.3342H123.106L123.387 13.196L123.945 12.7766L124.083 12.219L124.221 11.6614L124.083 11.1039L123.945 10.6845L123.525 10.4033L123.106 10.2651L123.244 10.5463L123.382 10.9657L123.244 11.6662L122.825 12.0856L122.544 12.2238L122.124 12.362L121.286 12.2238L120.728 12.0856H119.332L118.774 12.2238L117.935 12.362L117.516 12.2238L117.235 12.0856L116.815 11.6662L116.677 10.9657L116.815 10.5463L116.954 10.2651L116.534 10.4033L116.115 10.6845L115.977 11.1039L115.838 11.6614L115.977 12.362L116.258 12.9196L116.815 13.339L117.516 13.6201L117.096 14.7401L116.115 17.5137L115.276 20.4494L115.138 21.5693V22.1269L115.276 22.6845L115.834 23.6615L116.672 24.6385L119.889 27.5741L120.027 27.0165L120.166 26.316L120.447 25.6154L120.866 24.7767L121.843 25.6154L121.424 26.316L121.143 27.1547V27.8553L121.281 28.4129L121.562 28.9705L121.843 29.2517L122.401 29.5328L122.82 29.814H123.649L124.769 29.6758V28.4177L122.954 28.5559L123.235 28.1365L123.516 27.4359L123.797 26.7354V25.8966H125.079L124.941 26.5972L124.803 27.2977L127.738 27.0165V27.8553L129.416 27.7171L128.715 27.1595L128.296 26.4589L128.015 26.0396V24.2238L129.259 24.2286ZM132.194 32.8974L132.752 31.6393L133.171 30.8005L133.309 29.8235L133.171 29.9617L132.614 30.2429L131.913 30.3811L131.494 30.2429L131.074 30.1047L130.236 31.9204L129.678 32.8974H125.903L126.88 31.3581L127.3 30.3811L127.857 29.123H126.737L126.599 28.2842L126.042 28.4224L125.761 30.8053L124.641 30.9435H122.544L121.843 30.6623L121.004 30.1047L118.907 28.146L118.626 30.9435L118.345 32.9022H114.847L115.128 31.644L115.266 30.5241V28.9848L114.847 26.7497L114.709 26.1921V25.6154L114.847 25.196L115.128 24.6385L114.428 23.6615L114.008 22.5415V21.4216L114.146 20.1635L114.847 17.6472L115.824 14.9927L114.704 14.8545L114.842 14.4351V14.1777L115.4 13.6201L114.98 13.0626L114.842 12.6432L114.704 12.0856V11.6662L114.842 10.8274L115.123 10.1269L115.681 9.5693L116.239 9.28812L116.796 9.14993L117.473 9.01172H118.469L118.05 9.70751L117.768 10.4081L117.63 10.9657L117.768 11.2468H118.05L118.607 11.1086L119.165 10.9704L120.004 10.8322L120.842 10.9704L121.4 11.1086L121.819 11.2468H122.239L122.377 10.9657L122.239 10.4081L121.957 9.70751L121.538 9.01172H122.534L123.211 9.14993L123.768 9.28812L124.326 9.5693L124.884 10.1269L125.165 10.8274L125.303 11.6662L125.165 12.6432L125.027 13.0626L124.745 13.4819L125.165 14.1825L125.303 14.8831H124.045L124.602 15.7218L125.861 17.8187L127.119 19.3581L127.676 19.9156L128.377 20.4732L129.773 21.312L131.313 21.7314L132.571 22.0125H133.829L134.806 21.7314L135.363 21.4502L135.783 20.8926L135.921 20.4732L136.059 20.0538L135.921 19.6345L135.783 19.3533L135.645 18.9339L135.225 18.5145L134.248 17.9569L132.852 17.3994L131.174 16.98L129.778 16.5606L128.52 16.1412L127.962 15.7218L127.543 15.3024L127.123 14.7449L126.985 14.1873L126.847 13.4867L126.985 12.7861L127.266 12.0856L127.824 11.6662L128.525 11.2468L129.363 11.1086L130.34 10.9704H138.17L137.751 11.671L137.332 12.3715L136.774 13.0721L136.073 13.6297L135.516 13.9109L134.815 14.192H134.258L133.419 14.0538L132.861 13.7726L132.304 13.3533L131.884 12.9339L131.184 12.3763L130.903 12.2381L130.483 12.0999L129.506 12.2381L128.806 12.3763L128.525 12.5145L128.243 12.7957L128.105 13.0769L127.967 13.4962L128.105 13.7774L128.386 14.478L129.087 15.0356L130.064 15.4549L131.46 15.8743L133 16.1555L134.539 16.8561L135.239 17.1372L135.94 17.6948L136.498 18.1142L136.917 18.8148L137.055 19.3723L137.193 20.0729V20.7735L136.912 21.3311L136.493 22.0316L135.935 22.451L135.235 22.8704L134.396 23.0086L134.954 23.8473L135.373 24.5479L136.073 25.806L136.631 26.5066L137.189 26.7878L137.746 27.069L136.907 29.7234L136.488 31.401V32.9403L132.194 32.8974Z" fill="white"></path><path d="M118.636 15.0115L118.216 14.7304L118.073 14.311V13.8916H118.493L118.912 14.168L119.05 14.5874L119.193 15.0115H118.636Z" fill="white"></path></g><defs><clipPath id="clip0_871_23965"><rect width="116.021" height="33.2026" fill="white" transform="translate(32.8677 8.96875)"></rect></clipPath></defs></svg>