<svg xmlns="http://www.w3.org/2000/svg" width="158" height="51" viewBox="0 0 158 51" fill="none"><g clip-path="url(#clip0_871_23951)"><path d="M56.317 11.6288C53.1373 11.6288 51.189 14.0183 51.189 18.117C51.189 22.1607 53.1557 24.6052 56.317 24.6052C59.4784 24.6052 61.4451 22.2158 61.4451 18.117C61.4451 14.0366 59.5152 11.6288 56.317 11.6288ZM56.317 23.8516C55.104 23.8516 54.7363 22.5283 54.7363 18.0803C54.7363 13.6323 55.104 12.3089 56.317 12.3089C57.5301 12.3089 57.8977 13.6507 57.8977 18.117C57.8977 22.5466 57.5301 23.8516 56.317 23.8516ZM79.715 29.9722C78.3732 29.9722 77.3807 30.4869 76.8109 31.3507V26.9027H73.3922V35.1738C73.3922 39.6585 70.819 41.7906 68.5031 41.7906C66.7753 41.7906 66.0769 40.6143 66.0769 36.5523C66.0769 32.5087 66.518 30.6707 67.8965 30.6707C68.8155 30.6707 69.5875 31.5529 70.3595 33.5747H71.205V30.5788C70.194 30.1744 68.9442 29.9722 67.97 29.9722C64.4962 29.9722 62.5295 32.4719 62.5295 36.5523C62.5295 40.5959 64.4962 42.8934 67.8046 42.8934C70.5433 42.8934 72.4916 41.4414 73.4106 38.9785V42.5994H76.8293V33.4093C76.8293 31.994 77.6012 31.2772 78.41 31.2772C79.1819 31.2772 79.4576 31.9205 79.4576 32.8947V42.6177H82.8763V33.538C82.8396 31.0199 81.5897 29.9722 79.715 29.9722ZM63.5404 8.55936V24.2928H66.9591V8.55936H63.5404ZM75.8184 8.55936V12.8419C75.5059 12.1067 74.7707 11.6288 73.5944 11.6288C70.9293 11.6288 69.1464 14.0183 69.1464 18.0435C69.1464 22.1607 70.7271 24.5501 73.4657 24.5501C74.7523 24.5501 75.6346 23.9435 76.0389 22.6937V24.2376H79.2187V8.54098H75.8184V8.55936ZM74.1458 23.5943C73.0613 23.5943 72.6937 22.5099 72.6937 18.0251C72.6937 13.7977 73.0613 12.5478 74.2193 12.5478C75.4691 12.5478 75.9103 14.0366 75.9103 18.0251C75.8919 22.032 75.3221 23.5943 74.1458 23.5943ZM93.9228 11.6288C92.3973 11.6288 91.2944 12.4376 90.8166 13.5588C90.3387 12.2721 89.4013 11.6288 88.0412 11.6288C86.5891 11.6288 85.5415 12.2721 85.0452 13.3198V11.9413H81.8654V24.2928H85.2474V15.0843C85.2474 13.669 85.9274 12.9522 86.7729 12.9522C87.4898 12.9522 87.7838 13.522 87.7838 14.4961V24.2928H91.2025V15.0843C91.2025 13.669 91.8826 12.9522 92.7281 12.9522C93.4449 12.9522 93.739 13.522 93.739 14.4961V24.2928H97.1577V15.213C97.1209 12.6765 95.8527 11.6288 93.9228 11.6288ZM91.1106 35.376L89.144 34.1996C87.8206 33.4277 87.3611 32.9498 87.3611 32.1411C87.3611 31.2221 88.0044 30.6523 89.0888 30.6523C90.3754 30.6523 91.3128 31.4978 91.8826 33.5563H92.7281V30.3766C91.6437 30.1376 90.4306 29.9355 89.3461 29.9355C86.6075 29.9355 84.9533 31.2772 84.9533 33.4828C84.9533 35.0084 85.7988 36.056 87.5265 37.1037L89.144 38.0779C90.4857 38.8866 90.9636 39.4564 90.9636 40.3754C90.9636 41.5517 90.2284 42.1582 88.9418 42.1582C87.3611 42.1582 86.4421 41.1473 85.8355 38.9233H84.9901V42.3972C86.2399 42.728 87.5633 42.8751 88.6293 42.8751C91.7356 42.8751 93.5184 41.423 93.5184 38.9969C93.5184 37.3243 92.7097 36.3134 91.1106 35.376ZM104.124 11.6288C102.837 11.6288 101.33 11.8678 99.8963 12.3089V15.213H100.742C101.459 13.3933 102.396 12.3824 103.738 12.3824C104.583 12.3824 104.914 12.7868 104.914 13.7242V15.3049C104.914 16.0768 104.712 16.3158 103.83 16.6282L102.911 16.9407C100.209 17.8597 98.9957 19.036 98.9957 21.1681C98.9957 23.4289 100.337 24.6052 102.304 24.6052C103.683 24.6052 104.877 23.9987 105.245 22.8223V24.3111H108.351V15.3232C108.333 12.8787 106.881 11.6288 104.124 11.6288ZM104.933 20.9843C104.933 22.6018 104.399 23.3554 103.554 23.3554C102.745 23.3554 102.47 22.7121 102.47 21.0579V20.727C102.47 18.7971 102.874 18.0251 103.995 17.4553L104.933 16.9775V20.9843ZM117.21 11.6288C115.722 11.6288 114.637 12.2721 114.104 13.3198V11.9413H110.906V24.2928H114.325V15.0475C114.325 13.6323 115.097 12.9155 115.905 12.9155C116.677 12.9155 116.953 13.5588 116.953 14.5329V24.256H120.353V15.213C120.353 12.6765 119.104 11.6288 117.21 11.6288ZM49.737 37.3243C49.737 40.504 47.4394 42.6177 43.7634 42.6177H38.3596V36.975H39.1684C39.9036 40.3202 41.3005 41.809 43.6164 41.809C45.5095 41.809 46.5204 40.7981 46.5204 39.1439C46.5204 37.3794 45.436 36.5707 43.8553 35.6701L41.4659 34.2548C39.4441 33.0785 38.2861 31.6264 38.2861 29.6046C38.2861 27.3439 39.6095 25.8918 41.7232 25.2853C38.7273 24.4582 37.6428 21.7379 37.6428 16.8672C37.6428 11.3348 39.9403 8.22852 44.6273 8.22852H48.9834V12.8787H48.1379C47.127 9.90111 46.2447 9.00048 44.664 9.00048C42.3298 9.00048 41.6865 11.5002 41.6865 16.9958C41.6865 23.337 42.2562 24.7523 43.984 24.7523C45.3073 24.7523 45.9506 23.9068 45.9506 21.9217V19.4955C45.9506 18.0067 45.4728 17.4737 43.9288 17.2348V16.4628H49.1304V29.7333H48.3584C47.1821 26.3881 45.6566 25.6529 43.9656 25.6529C42.3114 25.6529 41.3005 26.4249 41.3005 27.9504C41.3005 29.3657 42.146 30.0457 43.7266 30.9831L46.3182 32.5271C48.3768 33.8137 49.737 34.99 49.737 37.3243ZM56.2803 29.9722C54.9937 29.9722 53.4865 30.2112 52.0528 30.6523V33.5563H52.8983C53.6152 31.7367 54.5525 30.7258 55.8943 30.7258C56.7398 30.7258 57.0706 31.1302 57.0706 32.0676V33.6115C57.0706 34.3834 56.8684 34.6224 55.9862 34.9349L55.0672 35.2473C52.3653 36.1663 51.1522 37.3427 51.1522 39.4747C51.1522 41.7355 52.494 42.9118 54.4606 42.9118C55.8392 42.9118 57.0339 42.3053 57.4015 41.129V42.6177H60.471V33.7034C60.4893 31.2221 59.0189 29.9722 56.2803 29.9722ZM57.089 39.3093C57.089 40.9268 56.556 41.6804 55.7105 41.6804C54.9018 41.6804 54.6261 41.0371 54.6261 39.3828V39.052C54.6261 37.1221 55.0304 36.3501 56.1516 35.7803L57.089 35.3025V39.3093Z" fill="white" fill-opacity="0.95"></path></g><defs><clipPath id="clip0_871_23951"><rect width="93.7387" height="39.3335" fill="white" transform="translate(32.1289 5.90332)"></rect></clipPath></defs></svg>