<svg xmlns="http://www.w3.org/2000/svg" width="221" height="51" viewBox="0 0 221 51" fill="none"><g clip-path="url(#clip0_871_23957)"><mask id="mask0_871_23957" style="mask-type:luminance" maskUnits="userSpaceOnUse" x="32" y="14" width="157" height="24"><path d="M188.868 14.0352H32.8677V37.1052H188.868V14.0352Z" fill="white"></path></mask><g mask="url(#mask0_871_23957)"><path d="M183.858 28.8949L183.818 29.1049L183.778 28.8949L180.338 19.0349H178.368L182.848 31.7649V31.8649C182.578 33.0849 181.818 34.5749 181.118 35.0449C180.508 35.4649 179.848 35.5149 179.328 35.5149C179.078 35.5149 178.558 35.4249 178.348 35.3749V36.9049C178.618 36.9749 179.278 37.0949 179.688 37.0949C180.638 37.0949 181.438 36.8549 182.108 36.3649C182.918 35.7749 183.828 34.2449 184.258 32.9349L188.728 19.0249H186.768L183.848 28.8849L183.858 28.8949Z" fill="white"></path><path d="M177.028 25.8152V24.6052C177.028 22.5052 176.488 20.9552 175.448 19.9952C174.568 19.1852 173.318 18.7852 171.678 18.7852C170.828 18.7852 170.048 18.9452 169.368 19.2452C168.708 19.5452 168.098 19.9852 167.638 20.5652C166.728 21.7052 166.228 23.3852 166.228 25.4352C166.228 27.7152 166.878 29.4452 168.058 30.6052C169.308 31.8252 170.918 32.0852 172.018 32.0852C174.888 32.0852 176.298 30.5152 176.888 29.0952L175.278 28.3252C174.888 29.1952 174.018 30.4952 172.018 30.4952C170.878 30.4952 169.928 30.0452 169.268 29.1852C168.628 28.3552 168.288 27.1952 168.288 25.8152H177.038H177.028ZM175.078 24.2252H168.338C168.508 21.5952 169.588 20.3752 171.718 20.3752C174.008 20.3752 175.068 21.5952 175.068 24.2252" fill="white"></path><path d="M60.2677 20.7149C59.2777 19.4449 57.8577 18.7749 56.1677 18.7749C54.4777 18.7749 53.0577 19.4449 52.0577 20.7149C51.1277 21.8949 50.6277 23.5749 50.6277 25.4249C50.6277 27.2749 51.1377 28.9449 52.0577 30.1349C53.0577 31.4049 54.4777 32.0749 56.1677 32.0749C57.8577 32.0749 59.2777 31.4049 60.2677 30.1349C61.1977 28.9549 61.7077 27.2749 61.7077 25.4249C61.7077 23.5749 61.1977 21.9049 60.2677 20.7149ZM56.1677 30.4849C54.0177 30.4849 52.7277 28.5949 52.7277 25.4249C52.7277 22.2549 54.0177 20.3649 56.1677 20.3649C58.3177 20.3649 59.5977 22.2549 59.5977 25.4249C59.5977 28.5949 58.3177 30.4849 56.1677 30.4849Z" fill="white"></path><path d="M66.1777 24.615C66.6677 21.975 68.0577 20.735 70.4377 20.735V18.855C68.4077 18.855 67.2177 19.645 66.1777 21.515L66.1577 21.535L66.1777 21.375V19.055H64.1777V31.865H66.1777V24.615Z" fill="white"></path><path d="M115.248 18.6349C115.248 17.7849 115.538 17.1149 116.068 16.6549C116.608 16.1849 117.398 15.9449 118.398 15.9449C119.458 15.9449 120.388 16.2449 121.098 16.8249C121.758 17.3449 122.238 18.1049 122.448 18.9749L124.318 18.7449C123.498 15.9549 121.488 14.2549 118.438 14.2549C116.928 14.2549 115.568 14.7249 114.588 15.5749C113.648 16.4049 113.128 17.5449 113.128 18.7849C113.128 20.1549 113.688 21.2249 114.838 22.0649C115.858 22.8049 117.188 23.2749 118.488 23.7349C120.738 24.5349 122.868 25.2849 122.868 27.3249C122.868 28.2349 122.558 28.9949 121.978 29.5349C121.338 30.1149 120.388 30.4149 119.168 30.4149C117.028 30.4149 115.468 29.2149 114.598 26.9049L112.688 27.4149C113.098 28.3549 113.798 29.7149 114.818 30.6249C115.938 31.6249 117.328 32.1149 119.068 32.1149C121.128 32.1149 122.688 31.5749 123.718 30.5049C124.778 29.3949 125.008 27.9849 125.008 26.9949C125.008 25.5749 124.418 24.4649 123.208 23.5949C122.148 22.8349 120.768 22.3649 119.428 21.9049C117.258 21.1649 115.208 20.4649 115.228 18.6349" fill="white"></path><path d="M128.188 20.6047H126.258V19.0147H128.188V14.8247H130.198V19.0147H132.348V20.6047H130.198V29.3547C130.198 29.9347 130.338 30.4747 131.678 30.4747C131.908 30.4747 132.128 30.4747 132.348 30.4547V31.8647C132.348 31.8647 131.588 32.0647 131.018 32.0647C130.118 32.0647 129.428 31.9247 128.978 31.6147C128.548 31.3247 128.188 30.8547 128.188 30.0747V20.6047Z" fill="white"></path><path d="M162.758 29.3649C162.758 29.9549 162.948 30.4849 164.288 30.4849C164.508 30.4849 164.738 30.4849 164.968 30.4649V31.8749C164.968 31.8749 164.208 32.0749 163.638 32.0749C162.738 32.0749 162.048 31.9349 161.598 31.6249C161.168 31.3349 160.758 30.8649 160.758 30.0849V14.0649H162.768V29.3549L162.758 29.3649Z" fill="white"></path><path d="M99.6277 22.3649C100.308 21.6349 101.828 20.4049 103.218 20.4049C104.608 20.4049 105.228 21.0849 105.228 22.6249V31.8749H107.238V22.5749C107.238 19.7949 105.258 18.8149 103.388 18.8149C102.078 18.8149 100.748 19.5049 99.6277 20.7749V19.0549H97.6277V31.8649H99.6277V22.3549V22.3649Z" fill="white"></path><path d="M92.2676 30.2847C92.3176 30.9947 92.5776 31.4047 93.1376 31.6947C93.6676 31.9747 94.5276 31.9147 94.8976 31.8247V30.4647C94.4476 30.4447 94.1576 30.2347 94.1576 29.6847V22.6847C94.1576 21.4047 93.6476 20.3747 92.6876 19.6947C91.8976 19.1247 90.7976 18.8247 89.6176 18.8247C86.7776 18.8247 85.4176 20.5147 84.8476 21.5647L86.4676 22.4147C86.6876 21.8047 87.4876 20.4147 89.6476 20.4147C91.3576 20.4147 92.2176 21.1747 92.2176 22.6647V23.1247C92.2176 23.1247 92.2176 23.2547 92.1876 23.3047C92.1276 23.3847 91.9576 23.4447 91.5176 23.4947C89.1276 23.7547 87.5376 24.1647 86.3776 24.9147C85.1076 25.7347 84.3176 26.8647 84.3176 28.4247C84.3176 29.5347 84.8576 30.4747 85.5676 31.1547C86.2276 31.7747 87.1376 32.0947 88.1276 32.1247C90.2276 32.1947 91.6176 31.3247 92.2976 30.2947M92.2576 28.1447C92.1676 29.2647 90.0776 30.6247 88.3676 30.5347C87.4276 30.4847 86.4976 29.7347 86.3976 28.4847C86.2376 26.4047 87.8276 25.5247 91.3176 25.1447C91.5576 25.1247 92.0176 25.0347 92.2476 24.9047V28.1447H92.2576Z" fill="white"></path><path d="M142.278 30.2847C142.328 30.9947 142.588 31.4047 143.138 31.6947C143.668 31.9747 144.528 31.9147 144.898 31.8247V30.4647C144.448 30.4447 144.158 30.2347 144.158 29.6847V22.6847C144.158 21.4047 143.648 20.3747 142.688 19.6947C141.898 19.1247 140.808 18.8247 139.618 18.8247C136.778 18.8247 135.418 20.5147 134.838 21.5647L136.458 22.4147C136.688 21.8047 137.478 20.4147 139.638 20.4147C141.348 20.4147 142.208 21.1747 142.208 22.6647V23.1247C142.208 23.1247 142.208 23.2547 142.168 23.3047C142.108 23.3847 141.938 23.4447 141.508 23.4947C139.118 23.7547 137.538 24.1647 136.368 24.9147C135.098 25.7347 134.308 26.8647 134.308 28.4247C134.308 29.5347 134.848 30.4747 135.558 31.1547C136.218 31.7747 137.128 32.0947 138.118 32.1247C140.228 32.1947 141.618 31.3247 142.288 30.2947M142.268 28.1447C142.178 29.2647 140.088 30.6247 138.378 30.5347C137.438 30.4847 136.508 29.7347 136.418 28.4847C136.258 26.4047 137.848 25.5247 141.338 25.1447C141.578 25.1247 142.038 25.0347 142.268 24.9047V28.1447Z" fill="white"></path><path d="M40.4477 28.4449L36.1977 14.4849H32.8677V31.8649H34.8777V15.9749L34.9177 16.0349L39.6777 31.8649H41.2377L46.0077 16.0349L46.0477 15.9749V31.8649H48.0477V14.4849H44.7077L40.4677 28.4449L40.4577 28.5149L40.4477 28.4449Z" fill="white"></path><path d="M149.628 22.3649C150.308 21.6349 151.828 20.4049 153.218 20.4049C154.608 20.4049 155.228 21.0849 155.228 22.6249V31.8749H157.228V22.5749C157.228 19.7949 155.258 18.8149 153.378 18.8149C152.068 18.8149 150.738 19.5049 149.618 20.7749V19.0549H147.608V31.8649H149.618V22.3549L149.628 22.3649Z" fill="white"></path><path d="M80.3178 19.0549L79.8878 20.4049C79.1478 19.4449 78.1878 18.8149 76.6678 18.8149C74.4078 18.8149 71.2078 20.3349 71.2078 25.4449C71.2078 30.5549 74.4078 32.0749 76.5678 32.0749C77.8278 32.0749 78.9778 31.3849 79.7578 30.3749L79.8578 30.3249V32.7549C79.8578 34.4649 78.3878 35.5049 76.8078 35.5049C75.2278 35.5049 73.9078 35.2149 72.7978 34.6949V36.4249C73.7278 36.8249 75.2478 37.0849 76.5578 37.0849C80.1078 37.0849 81.8078 35.1249 81.8078 32.2849V19.0549H80.3078H80.3178ZM79.8678 28.1449C79.3478 29.6149 77.8778 30.4849 76.8178 30.4849C74.7578 30.4849 73.3078 29.1949 73.3078 25.3449C73.3078 22.1049 74.6078 20.3949 76.8178 20.3949C77.9478 20.3949 78.9278 20.8849 79.8678 22.0449V28.1449Z" fill="white"></path></g></g><defs><clipPath id="clip0_871_23957"><rect width="156" height="23.07" fill="white" transform="translate(32.8677 14.0352)"></rect></clipPath></defs></svg>