<svg xmlns="http://www.w3.org/2000/svg" width="271" height="51" viewBox="0 0 271 51" fill="none"><g clip-path="url(#clip0_218_31326)"><path d="M39.3354 25.0935C41.78 25.0935 43.0229 24.1527 43.0229 21.6532C43.0229 19.3391 42.0684 18.1168 39.6582 18.1168C39.3904 18.1168 38.5251 18.0893 38.4496 18.3846C38.3741 18.6799 38.3672 20.376 38.3672 20.7536V25.0866L39.3354 25.0935ZM57.4363 27.2977L55.2046 21.4609L52.8218 27.2977H57.4363ZM78.1808 17.9657C77.2126 18.1031 76.8349 18.7966 76.3543 19.6618L72.0488 26.8994V29.6187C72.0488 31.7954 71.9939 32.901 74.5208 32.8186V33.7181H56.8595V32.8323C57.6148 32.7225 58.9607 32.7774 58.9607 31.6993C58.9607 31.2942 58.638 30.4083 58.4732 30.0307L57.9376 28.5749H52.3274L52.0184 29.3165C51.778 29.962 51.4004 30.7723 51.4004 31.4384C51.4004 32.6744 52.554 32.7568 53.5016 32.8392V33.7525H45.0211L41.4161 28.6436C40.5852 27.49 39.4796 26.199 38.7792 26.2471C38.6419 26.2471 38.5114 26.2745 38.3741 26.2745V29.6118C38.3741 31.6856 38.3466 32.8941 40.7981 32.8117V33.7113H32.1116V32.798C34.5355 32.8804 34.5081 31.6924 34.5081 29.5981V21.0558C34.5081 18.982 34.563 17.7735 32.1116 17.8559V16.9426C33.5673 16.97 34.9888 17.025 36.417 17.0524C37.7904 17.025 39.1363 16.97 40.5303 16.9426C41.7388 16.9975 43.5997 17.0799 44.7259 17.5606C46.367 18.2335 47.2254 19.5794 47.2254 21.3511C47.2254 23.6102 45.3164 25.0385 43.2426 25.3613L46.6966 29.6805C47.1979 30.4289 47.7472 31.15 48.3378 31.8298C48.5507 32.0426 48.9009 32.3379 49.3335 31.8298C50.0613 30.9714 50.4871 29.7079 50.8922 28.7603L55.9324 16.6816H57.141L62.3598 29.7285C62.6276 30.4015 63.1426 31.665 63.6507 32.1731C64.1451 32.5164 64.7219 32.7225 65.3193 32.7637H65.8275C68.224 32.7637 68.1416 31.713 68.1691 29.5637V27.3595L63.7881 19.5657C63.1151 18.4327 62.9778 18.1374 61.6662 17.8421V16.9426C62.9297 16.97 64.2207 17.025 65.4841 17.0524C66.9399 17.025 68.3613 16.97 69.8171 16.9426V17.8421C69.1441 17.8971 67.9081 17.9795 67.9081 18.9477C67.9081 19.4558 68.5536 20.5888 68.8214 21.0489L71.3484 25.6497L73.793 21.5571C74.1157 20.939 74.7612 19.7786 74.7612 19.1125C74.7612 18.0069 73.793 17.849 72.9071 17.849V16.9426H83.8253L88.8037 28.7809L93.377 16.9426C94.3452 16.97 95.3135 17.025 96.2542 17.0524C97.2774 17.025 98.273 16.97 99.4541 16.9426V17.8421C97.0096 17.7597 97.0851 18.9957 97.0576 21.097V29.0625C97.0233 29.8796 97.092 30.7036 97.243 31.507C97.5108 32.5851 98.4516 32.6606 99.4198 32.8255V33.7387H90.8363V32.8255C91.8045 32.6606 92.7728 32.5576 93.0131 31.507C93.1573 30.6967 93.2191 29.8796 93.1985 29.0625V21.0558H93.1573L88.1033 33.7113H86.8948L81.6074 20.8704H81.5524V28.6436C81.5524 29.4539 81.5524 31.0882 81.9301 31.7886C82.3352 32.5439 83.1936 32.7293 83.9764 32.8117V33.7113H77.9268V32.798C78.895 32.6332 79.8632 32.5302 80.1035 31.4796C80.2477 30.6693 80.3095 29.8521 80.2889 29.035V18.982C79.8495 18.261 79.0323 17.8559 78.1877 17.9589L78.1808 17.9657ZM99.8043 25.375C99.8043 19.9434 104.137 16.7366 109.246 16.7366C114.355 16.7366 118.661 19.9914 118.661 25.375C118.661 30.7585 114.3 34.0134 109.164 34.0134C104.027 34.0065 99.8043 30.7105 99.8043 25.375ZM104.192 25.2102C104.192 28.465 105.078 32.8529 109.171 32.8529C113.339 32.8529 114.28 29.035 114.28 25.5329C114.28 22.1407 113.394 17.8902 109.171 17.8902C105.105 17.8696 104.192 21.9553 104.192 25.2102ZM137.331 17.8833C135.045 17.9108 135.072 18.7691 135.072 21.8935V34.0821H133.836L122.321 20.9734V28.8015C122.321 30.7379 122.321 32.7018 124.765 32.8117V33.7113H118.791V32.798C120.892 32.5851 121.05 31.562 121.05 29.756V19.6C120.24 18.467 119.917 18.0138 118.523 17.8765V16.97C119.333 16.9975 120.137 17.0524 120.947 17.0799C121.915 17.0524 122.856 16.9975 123.824 16.97L133.829 28.5131V21.7562C133.829 19.8198 133.829 17.9657 131.405 17.8833V16.97H145.771C148.243 16.97 150.557 17.4576 152.493 19.0919C154.512 20.8429 155.37 23.157 155.37 25.7664C155.37 28.108 154.642 30.2023 152.898 31.816C151.099 33.4297 148.648 33.8349 146.279 33.7525C144.933 33.725 138.1 33.7525 138.1 33.7525V32.8392C140.545 32.9216 140.497 31.7336 140.497 29.6393V21.0558C140.497 19.0369 140.552 17.8833 138.1 17.8833H137.331ZM143.868 28.1286C143.868 28.8839 143.868 30.6555 144.109 31.3285C144.432 32.2143 145.262 32.5645 146.155 32.5645C150.083 32.5645 150.461 28.6642 150.461 25.5947C150.461 23.8986 150.22 21.8523 149.437 20.321C148.524 18.5975 146.773 18.1168 144.947 18.1168C144.734 18.1168 144.116 18.1717 143.923 18.3571C143.834 18.5494 143.8 18.7623 143.814 18.9751V28.1217H143.868V28.1286ZM164.744 27.7509C164.627 27.7921 164.517 27.8539 164.421 27.9363C164.016 28.259 163.638 29.55 163.858 30.8959C164.126 32.4134 165.533 33.4503 167.058 33.2649C169.612 32.9147 169.159 31.0058 169.159 25.6016V21.1107C169.159 19.0095 169.076 17.8009 166.604 17.8559V16.9426C167.868 16.97 169.324 17.025 170.615 17.0524C172.201 17.025 174.007 16.97 175.621 16.9426V17.8421C173.519 17.8971 173.224 18.2473 173.224 21.097V27.2016C173.224 31.3972 172.118 33.6014 168.115 34.3018C165.183 34.81 161.228 34.1645 160.129 31.2598C159.593 29.8315 159.806 28.2728 159.806 27.6273L163.549 26.8994L164.572 26.714L164.757 27.7372M182.851 27.2977L180.62 21.4609L178.223 27.2977H182.851ZM226.291 28.4032H227.286C227.987 30.7173 229.168 32.8392 231.969 32.8392C233.446 32.8392 234.874 31.871 234.874 30.3122C234.874 27.9432 232.429 27.2977 230.651 26.5492C228.364 25.5535 226.51 24.29 226.51 21.4953C226.51 18.3777 228.907 16.7091 231.839 16.7091C233.212 16.7091 234.634 17.0044 235.629 17.9451L235.952 16.9494H237.058L237.222 21.5227H236.117C235.657 19.5588 234.208 17.849 231.99 17.849C230.754 17.849 229.49 18.5494 229.49 19.9228C229.49 21.8317 231.427 22.3467 232.855 23.0197C235.574 24.1733 238.129 25.3887 238.129 28.774C238.129 32.1594 235.293 33.9928 232.196 33.9928C230.582 33.9928 228.914 33.4572 227.787 32.2692L227.424 33.725H202.14V32.8117C203.108 32.6469 204.076 32.5439 204.317 31.4933C204.461 30.683 204.523 29.8659 204.502 29.0487V21.0558H204.447L199.38 33.7113H198.171L192.842 20.8498H192.787V28.6298C192.787 29.4401 192.787 31.0744 193.165 31.7748C193.57 32.5302 194.429 32.7156 195.184 32.798V33.7113H182.233V32.798C182.989 32.6881 184.334 32.743 184.334 31.665C184.334 31.2598 184.012 30.374 183.847 29.9963L183.311 28.5406H177.715L177.42 29.2685C177.207 29.9139 176.802 30.7242 176.802 31.3903C176.802 32.6263 177.955 32.7087 178.903 32.7911V33.7044H173.251V32.8186C174.275 32.6332 174.893 31.7954 175.373 30.8822C175.724 30.1817 176.019 29.4813 176.287 28.7809L181.32 16.7022H182.528L187.747 29.7491C188.015 30.4221 188.53 31.713 189.038 32.1937C189.217 32.3585 189.43 32.489 189.656 32.5714C189.862 32.6538 190.096 32.6538 190.302 32.5714C190.789 32.4134 191.16 32.0014 191.27 31.4933C191.414 30.683 191.476 29.8659 191.455 29.0487V18.9545C190.995 18.0687 190 17.9039 189.086 17.8215V16.9151C190 16.9426 190.94 16.9975 191.854 17.025C192.932 16.9975 193.955 16.9426 195.026 16.9151L200.004 28.7534L204.578 16.9151H224.945L225.158 21.3785H224.052C223.619 18.879 222.17 18.0687 219.746 18.0687C219.451 18.0687 217.81 18.0687 217.673 18.3365C217.59 18.4739 217.59 19.5726 217.59 19.7923V24.5029C219.637 24.5029 220.955 24.1252 221.058 21.7837H222.081C222.054 22.9373 221.999 24.1252 221.971 25.2789C221.999 26.3295 222.054 27.3801 222.081 28.4238H221.058C220.57 26.0823 219.925 25.7046 217.59 25.7046V28.6367C217.59 31.0332 217.508 32.537 220.522 32.537H221.786C224.478 32.4821 225.501 31.5963 226.146 28.8221C226.208 28.6916 226.256 28.5474 226.291 28.4032ZM213.759 21.0558C213.759 19.4146 213.786 18.3365 212.626 17.9863C212.282 17.9108 211.932 17.8765 211.575 17.8765H210.456C210.112 17.8696 209.769 17.9039 209.433 17.9863C208.279 18.3365 208.3 19.4421 208.3 21.0558V29.6118C208.3 31.253 208.272 32.331 209.433 32.6812C209.776 32.7568 210.126 32.7911 210.483 32.7911H211.589C211.932 32.798 212.275 32.7637 212.612 32.6812C213.765 32.331 213.745 31.2255 213.745 29.6118L213.759 21.0558Z" fill="white"></path></g><defs><clipPath id="clip0_218_31326"><rect width="206.017" height="17.7778" fill="white" transform="translate(32.1116 16.6816)"></rect></clipPath></defs></svg>